<svg xmlns="http://www.w3.org/2000/svg" width="30.062" height="41.55" viewBox="0 0 30.062 41.55">
  <path id="Path_9" data-name="Path 9" d="M2328.921,0c.426.054.855.1,1.279.165a14.768,14.768,0,0,1,11.766,9.079,14.593,14.593,0,0,1,.483,10.3,38.079,38.079,0,0,1-3.65,8.19,85.336,85.336,0,0,1-9.454,13.089,1.414,1.414,0,0,1-2.469,0,81.113,81.113,0,0,1-10.5-15.008,27.983,27.983,0,0,1-2.976-7.846,14.593,14.593,0,0,1,4.558-13.981,14.6,14.6,0,0,1,8.5-3.9c.279-.035.559-.062.839-.092Zm-.81,22.616a7.572,7.572,0,1,0-7.56-7.561,7.583,7.583,0,0,0,7.56,7.561" transform="translate(-2313.095)" fill="#60be1b"/>
</svg>
