<svg xmlns="http://www.w3.org/2000/svg" width="1905.258" height="2010.9" viewBox="0 0 1905.258 2010.9">
  <path id="Path_17" data-name="Path 17" d="M310.589,1243.295c237.1,57.35,299.649-158.037,287.318-354.429-8.214-130.792-23.525-276.884,58.993-378.694,60.942-75.187,162.555-106.038,259.264-109.827s192.754,15.274,289.387,20.7,199.042-4.606,278.7-59.576,126.907-165.52,84.925-252.724c-42.365-88-155.769-119.549-252.427-105.555s-184.543,62.076-277.167,93.047c-162.409,54.3-339.066,55.3-507.843,26.343-92.287-15.837-184.471-40.511-277.958-35.208S61.907,135.256,20.671,219.326c-54.416,110.947,8.22,242.067,76.69,344.937S245.45,780.591,224.153,902.318c-13.394,76.567-66.588,149.563-48.2,225.088,13.934,57.233,67.645,98.013,124.529,113.307Q305.588,1242.088,310.589,1243.295Z" transform="matrix(0.53, -0.848, 0.848, 0.53, 1.53, 1345.537)" fill="none" stroke="#60be1b" stroke-width="2.2" opacity="0.57"/>
</svg>
