<svg xmlns="http://www.w3.org/2000/svg" xmlns:xlink="http://www.w3.org/1999/xlink" width="903.817" height="661.208" viewBox="0 0 903.817 661.208">
  <defs>
    <linearGradient id="linear-gradient" x1="0.5" x2="0.5" y2="1" gradientUnits="objectBoundingBox">
      <stop offset="0" stop-color="#60be1b"/>
      <stop offset="1" stop-color="#a8e063"/>
    </linearGradient>
  </defs>
  <path id="Path_4" data-name="Path 4" d="M742.474,0c-29.893.033-61.134,8.49-87.967,21.559-54.067,26.334-100.379,67.823-156.8,88.651-94.89,35.032-197.139,6.322-292.776-9.706C151.424,91.537-5.72,60.231.161,154.721c1.493,24,15.626,45.638,33.034,62.225,20.514,19.548,45.258,33.1,72.019,42.115,33.516,11.293,70.192,15.48,105.681,15.444,63.824-.063,127.339-11.761,191.132-9.742s131.137,20.371,172.818,68.709C604.5,367.866,617.7,413.2,627.9,457.455s18.54,89.877,40.9,129.405c29.737,52.563,88.441,85.671,149.143,70.76,47.7-11.714,85.693-57.829,85.874-106.216v-.72a90.96,90.96,0,0,0-1.092-13.732c-9.07-57.854-65.889-96.724-85-152.077-20.128-58.3,4.924-121.191,23.062-180.143S867.128,73.319,823.3,29.925C801.85,8.695,773.041.033,742.827,0Z" transform="translate(0)" fill="url(#linear-gradient)"/>
</svg>
