<svg xmlns="http://www.w3.org/2000/svg" width="35.834" height="25.207" viewBox="0 0 35.834 25.207">
  <g id="Group_54" data-name="Group 54" transform="translate(-4019.82 -12156.6)">
    <path id="Path_5" data-name="Path 5" d="M1206.3,78.209l.289-.891,10.826,10.731-10.835,10.732-.28-.832Z" transform="translate(2813.521 12081.125)" fill="#60be1b"/>
    <path id="Path_6" data-name="Path 6" d="M1257.883,57.961c-.515.5-1.035,1-1.545,1.515q-6.758,6.775-13.513,13.554a1.252,1.252,0,0,1-2,0l-14.8-14.844c-.081-.081-.157-.168-.3-.325.419-.092.773-.179,1.13-.244a2.539,2.539,0,0,1,.454-.011q14.519,0,29.039.008a12.4,12.4,0,0,1,1.5.18Z" transform="translate(2795.915 12099)" fill="#60be1b"/>
    <path id="Path_7" data-name="Path 7" d="M1247.477,209.287l10.866,10.764c-.429.1-.782.179-1.137.249a1.83,1.83,0,0,1-.349.01h-29.243a3.067,3.067,0,0,1-1.445-.3L1237,209.287c.023.021.116.1.2.189q1.285,1.288,2.568,2.577a3.319,3.319,0,0,0,4.913.008c.941-.938,1.886-1.872,2.794-2.774" transform="translate(2795.508 11961.493)" fill="#60be1b"/>
    <path id="Path_8" data-name="Path 8" d="M1481.583,99.088l-10.859-10.765L1481.6,77.558a6.418,6.418,0,0,1,.232,1.226q.023,9.514,0,19.029a6.861,6.861,0,0,1-.243,1.275" transform="translate(2573.816 12080.907)" fill="#60be1b"/>
  </g>
</svg>
