<svg xmlns="http://www.w3.org/2000/svg" width="247.964" height="60" viewBox="0 0 247.964 60">
  <g id="Group_60" data-name="Group 60" transform="translate(-286.036 -12911.389)">
    <g id="Group_56" data-name="Group 56" transform="translate(-1585.521 1382.747)">
      <path id="Path_10" data-name="Path 10" d="M60,28.769v3.75a3.269,3.269,0,0,0-.1.452,28.632,28.632,0,0,1-4.1,12.92A29.663,29.663,0,0,1,35.162,60.183c-1.087.2-2.193.309-3.29.46h-3.75c-.169-.035-.337-.078-.508-.1-1.236-.174-2.486-.273-3.705-.525a30,30,0,0,1-23.7-32.85,29.111,29.111,0,0,1,11.175-20A29.157,29.157,0,0,1,34.8,1.037a28.8,28.8,0,0,1,15.107,7.2,29.508,29.508,0,0,1,9.633,17.237c.194,1.091.309,2.2.461,3.3M14.491,26.717a7.041,7.041,0,0,0,5.3,6.708l-.029.142h-2.84A7.122,7.122,0,0,0,23.337,38.4a14.161,14.161,0,0,1-10.055,2.846c.2.145.28.219.374.272,6.1,3.466,12.445,3.9,18.726.85,7.038-3.418,10.5-9.406,10.965-17.138a2.759,2.759,0,0,1,1.084-2.344,20.785,20.785,0,0,0,2.307-2.406l-.117-.092-3.491.937-.07-.147a6.9,6.9,0,0,0,2.751-3.5c-1.247.452-2.483.9-3.72,1.346a.885.885,0,0,1-.979-.241,6.887,6.887,0,0,0-11.478,4.3,19.137,19.137,0,0,0-.015,2.357,19.737,19.737,0,0,1-14.106-7.186,6.493,6.493,0,0,0-.928,3.674,6.931,6.931,0,0,0,2.9,5.432l-.09.161-2.906-.809" transform="translate(1965.521 11528)" fill="#60be1b"/>
    </g>
    <g id="Group_55" data-name="Group 55" transform="translate(-3239.685 1378.198)">
      <path id="Path_11" data-name="Path 11" d="M1778.406,64.676a29.741,29.741,0,1,1,29.757-29.716,29.76,29.76,0,0,1-29.757,29.716M1760.1,34.935h-.051c0,2.24-.015,4.48.008,6.719a18.123,18.123,0,0,0,.172,2.546c.559,3.655,2.333,6.442,5.838,7.931a13.046,13.046,0,0,0,5.1.984q6.958.028,13.916,0a18.749,18.749,0,0,0,3.017-.23c3.724-.628,6.489-2.529,7.875-6.157a13.124,13.124,0,0,0,.819-4.716c0-4.579.01-9.158-.006-13.736a17.682,17.682,0,0,0-.174-2.6c-.582-3.8-2.475-6.634-6.167-8.066a12.939,12.939,0,0,0-4.653-.846q-7.374-.033-14.749,0a12.529,12.529,0,0,0-5.307,1.126c-3.719,1.745-5.365,4.884-5.607,8.79-.17,2.744-.033,5.507-.033,8.262" transform="translate(1965.521 11528)" fill="#60be1b"/>
      <path id="Path_12" data-name="Path 12" d="M1856.467,99.235c2.4,0,4.8-.024,7.2.013a11.949,11.949,0,0,1,2.472.287,6.468,6.468,0,0,1,5.17,5.792,16.41,16.41,0,0,1,.122,1.955c.01,4.56.038,9.121-.018,13.68a10.8,10.8,0,0,1-.521,3.262,6.143,6.143,0,0,1-5.794,4.366c-2.468.178-4.951.169-7.428.184q-4.223.026-8.446-.065a13.98,13.98,0,0,1-2.587-.319,6.435,6.435,0,0,1-5.052-5.761,13.61,13.61,0,0,1-.128-1.954c-.01-4.58-.037-9.16.018-13.74a10.632,10.632,0,0,1,.524-3.2,6.126,6.126,0,0,1,5.735-4.359c2.427-.189,4.872-.143,7.309-.2.475-.01.951,0,1.427,0v.059m0,5.078a9.667,9.667,0,1,0,9.647,9.691,9.64,9.64,0,0,0-9.647-9.691m9.7-1.879a1.924,1.924,0,1,0,1.938,1.906,1.926,1.926,0,0,0-1.938-1.906" transform="translate(1887.499 11448.954)" fill="#60be1b"/>
      <path id="Path_13" data-name="Path 13" d="M1902.757,165.583a6.234,6.234,0,1,1,6.316-6.153,6.227,6.227,0,0,1-6.316,6.153" transform="translate(1841.103 11403.585)" fill="#60be1b"/>
    </g>
    <g id="Group_59" data-name="Group 59" transform="translate(-404.964 39.001)">
      <path id="Path_27" data-name="Path 27" d="M59.453,27.879V31.6c-.048.381-.1.762-.142,1.144A29.819,29.819,0,0,1,34.892,59.022c-1.1.2-2.213.309-3.321.461H27.854c-.38-.048-.76-.1-1.141-.142a28.915,28.915,0,0,1-16.487-7.174A29.062,29.062,0,0,1,.138,26.748,28.2,28.2,0,0,1,7.426,10.074,29.112,29.112,0,0,1,29.213.009a28.217,28.217,0,0,1,15.758,4.21A29.312,29.312,0,0,1,59,24.61c.2,1.08.307,2.178.457,3.268M12.4,47.343c.268-.063.434-.1.6-.14,2.785-.727,5.568-1.465,8.36-2.169a1.457,1.457,0,0,1,.924.1,17.809,17.809,0,1,0-7.629-7.478,1.274,1.274,0,0,1,.113,1.036c-.793,2.847-1.563,5.7-2.368,8.65" transform="translate(691 12872.39)" fill="#60be1b"/>
      <path id="Path_28" data-name="Path 28" d="M134.769,152.794c.456-1.677.865-3.261,1.328-4.829a1.325,1.325,0,0,0-.18-1.185,14.651,14.651,0,1,1,4.871,4.823,1.345,1.345,0,0,0-.9-.122c-1.671.4-3.33.85-5.116,1.314m18.58-5.332a5.01,5.01,0,0,0,1.1-.169c2.307-.8,2.962-1.851,2.991-3.68a.9.9,0,0,0-.365-.692c-1.164-.607-2.357-1.159-3.543-1.721a.782.782,0,0,0-1.1.3c-.378.536-.826,1.022-1.231,1.54a.774.774,0,0,1-1.021.244,12.185,12.185,0,0,1-6.008-5.156.783.783,0,0,1,.087-1.042,9.851,9.851,0,0,0,1-1.351,1.14,1.14,0,0,0,.121-.854c-.448-1.193-.95-2.365-1.459-3.534a1.234,1.234,0,0,0-.476-.554,2.677,2.677,0,0,0-2.406.371,5.011,5.011,0,0,0-1.518,4.862,10.557,10.557,0,0,0,2.2,4.234,18.086,18.086,0,0,0,6.989,5.952,10.833,10.833,0,0,0,4.64,1.252" transform="translate(572.903 12762.728)" fill="#60be1b"/>
    </g>
  </g>
</svg>
